#!OML:ASF E:/inclinewalkrobotboard/Project1/Captureday1/Session1/subject1.ASF
:FULLY-SPECIFIED
:DEGREES
151
root 0 0 0 -2.542996626076162 -1.0868840724820537 -1.7498571050964573
lowerback 10.458321968496884 -0.014234863889281635 0.21088624986638127
upperback 0.4553279446372831 0.11610637116709721 1.7845751060806658
thorax -5.288956937577222 0.07737169528903176 1.7290586395558114
lowerneck -17.38891050075334 -2.799907907905606 -1.7969213822065804
upperneck 19.778719260617766 -3.439533300768353 0.17407248573581313
head 9.115491207021716 -1.7019071712697302 -0.09751632604185323
rclavicle -3.6941086303725654E-16 -3.6023054865742593E-16
rhumerus -30.2458489122843 -19.096665106958618 -78.28235292167076
rradius 25.627360354651636
rwrist 4.162528159386329
rhand -17.49079116506106 23.31920533623144
rfingers 7.125020000000036
rthumb 8.7449687078003 -6.514653568738517
lclavicle -6.601230244099902E-16 -2.096892023175419E-16
lhumerus -30.180598137915947 -1.6467280787510852 82.27898966383141
lradius 32.57565159096441
lwrist 5.695083162476961
lhand -25.53849636597245 23.927516768729294
lfingers 7.123892449016058
lthumb 0.978782084760395 53.53193843123707
rfemur -21.065664167723323 2.2620516168753717 21.377603976865696
rtibia 55.55308781225577
rfoot -0.1591265341471928 -6.061731091468128
rtoes 6.6788204273881435
lfemur 3.5911627733550393 -3.316502186108866 -26.180212308692283
ltibia 19.268212396404984
lfoot -15.842314581917114 0.4850443148951902
ltoes -3.949088567033582
152
root 0 0 0 -2.6336618556556353 -0.5963397800736274 -0.6690188714432267
lowerback 10.43285871785527 -0.44779600406700004 -0.9698829669179989
upperback 0.4893023960377567 -0.5968522719273974 1.7518349763866752
thorax -5.242432441884585 -0.2517345567654576 2.4557372829358894
lowerneck -17.260785579280082 -2.7240161048623923 -1.939895821661061
upperneck 19.73320866605369 -3.322320663998071 0.2461654124236281
head 9.076286462593675 -1.6569207432905195 -0.03265046890602319
rclavicle -3.784174393659649E-16 -3.5630801697945754E-16
rhumerus -30.051593186513614 -18.912159563752184 -78.24292343824898
rradius 25.80748218565327
rwrist 4.202210439671952
rhand -17.52229327287344 23.176837173022275
rfingers 7.125020000000034
rthumb 8.715497269241922 -6.654326593252783
lclavicle -6.682843805962746E-16 -2.0796620367397284E-16
lhumerus -29.94073241152167 -1.9084294092757652 82.26287988543115
lradius 33.08296150102147
lwrist 5.74584708790664
lhand -25.389516844884554 24.019265286927435
lfingers 7.123770751629708
lthumb 1.1204935727839818 53.57392797068544
rfemur -20.64717580048737 2.722823291923084 21.50662643746052
rtibia 53.14121905953773
rfoot -1.2616375312766799 -6.366868724513306
rtoes 5.838225588536381
lfemur 3.811539175302512 -3.3229254475980623 -26.24515550224158
ltibia 19.20156178963285
lfoot -16.009480647082125 0.553643504305132
ltoes -4.041544630515794
153
root 0 0 0 -2.705971574634184 -0.3410764487141922 0.2097955601433898
lowerback 10.407298941397165 -0.7818957142313435 -1.9261804613321385
upperback 0.5345255869452021 -1.1530563909481646 1.705972956295449
thorax -5.182092749203325 -0.5091304964113332 3.0224687374390693
lowerneck -17.066651919161046 -2.6710197409687564 -2.0925289964912306
upperneck 19.637574385916754 -3.2459503931849185 0.36588564673079826
head 9.009770035720596 -1.6276074073478477 0.04662912418881504
rclavicle -3.881638534411993E-16 -3.5025459978655404E-16
rhumerus -29.865860444881363 -18.739108091534618 -78.20334447498453
rradius 25.977222988044478
rwrist 4.240446470803366
rhand -17.553321496359615 23.041217587075757
rfingers 7.125020000000032
rthumb 8.686892635066263 -6.78695322088819
lclavicle -6.779785229467488E-16 -2.0199866187095874E-16
lhumerus -29.673062896229393 -2.20557865674391 82.245599038721
lradius 33.65310670231696
lwrist 5.801623357827367
lhand -25.221366984464314 24.121139007035268
lfingers 7.123626031551353
lthumb 1.2784471395464987 53.62137403538796
rfemur -19.634123162727654 3.513110222888537 21.9212331466559
rtibia 48.94951197506469
rfoot -3.1696617074140843 -6.804904981875328
rtoes 4.4982056185313395
lfemur 4.131692498513159 -3.3123467408142306 -26.339085303832217
ltibia 19.24919510951093
lfoot -16.12696543684403 0.5331735264133579
ltoes -4.19396376623521
154
root 0 0 0 -2.7435852770243967 -0.2508921155175443 0.6826299063889277
lowerback 10.391604304588029 -0.9581645843805183 -2.4406113545041057
upperback 0.5661268883193893 -1.4481660914386327 1.674984771422754
thorax -5.140137014772688 -0.6458629857469915 3.3214706380272383
lowerneck -16.925463709814835 -2.645519298636769 -2.1900738493323617
upperneck 19.56831310825105 -3.212120966622749 0.4526223707914401
head 8.961188219955961 -1.6137813643132455 0.09948712057298437
rclavicle -3.9547692920823454E-16 -3.462282861465913E-16
rhumerus -29.734687213741708 -18.61943283421529 -78.17576623068507
rradius 26.093635118063574
rwrist 4.266977465986551
rhand -17.57544052030257 22.946929479523245
rfingers 7.12502000000003
rthumb 8.666766032967148 -6.8791440712843865
lclavicle -6.878095323147484E-16 -1.9505684234737162E-16
lhumerus -29.419156366702097 -2.4867670493575673 82.22855357732774
lradius 34.193051920391646
lwrist 5.855167356623587
lhand -25.06257967852313 24.21855180965356
lfingers 7.123491556300103
lthumb 1.427322950888481 53.666676986391295
rfemur -17.463751565786076 4.812620752391315 22.897553810126563
rtibia 42.10905512455964
rfoot -6.337405110046809 -7.384175430771933
rtoes 2.506945411604079
lfemur 4.418615912802329 -3.259868259136524 -26.388219081437704
ltibia 19.63394820160462
lfoot -16.04551733072517 0.3437403298151924
ltoes -4.407828193364196
155
root 0 0 0 -2.7576387962581466 -0.20794817439396063 0.8842504141158011
lowerback 10.382847737996652 -1.0360963866044064 -2.6613770384137485
upperback 0.5792388884090158 -1.5778338337655429 1.6628231698784175
thorax -5.121222024959103 -0.7059874663247874 3.452285539027627
lowerneck -16.865851889742153 -2.6350814771815427 -2.232640933227322
upperneck 19.544313657199638 -3.199040345465648 0.4892217883761676
head 8.94093794701692 -1.6076232277190825 0.12202425921494209
rclavicle -4.027118083101478E-16 -3.43686723776336E-16
rhumerus -29.618687843614325 -18.514547254638018 -78.15171431236423
rradius 26.194489136131374
rwrist 4.290194083574937
rhand -17.59428044621942 22.865005191185595
rfingers 7.125020000000029
rthumb 8.649445762961804 -6.959445877103846
lclavicle -7.023413416833117E-16 -1.900505084125764E-16
lhumerus -29.176169895621936 -2.7549687953108872 82.21110157534152
lradius 34.708994653952814
lwrist 5.906207130471254
lhand -24.909315039449744 24.312232318765528
lfingers 7.12336675476431
lthumb 1.5718774325480975 53.709738107098886
rfemur -13.53494731769754 6.817377565589981 24.703638451481154
rtibia 31.75027774413121
rfoot -11.258154623048355 -8.116784633020925
rtoes -0.293843154927826
lfemur 4.537744739172149 -3.174045692105234 -26.340478513068014
ltibia 20.32254558377769
lfoot -15.760170012686412 0.03813945519137718
ltoes -4.635614768804982
156
root 0 0 0 -2.764141196112722 -0.17777799839494968 1.0144031778103022
lowerback 10.370897933128376 -1.0893319616597443 -2.804837110365715
upperback 0.586906017378312 -1.6653678572598158 1.655741201503126
thorax -5.106282765813594 -0.7466205587504329 3.5391020191407843
lowerneck -16.826624079114826 -2.6266633195550573 -2.260960324756348
upperneck 19.535560116968536 -3.1881959470623844 0.5114132450772271
head 8.927915732723932 -1.6023005396836854 0.13614477365206223
rclavicle -4.20592435132895E-16 -3.3622866562426506E-16
rhumerus -29.371186582424027 -18.282285399275366 -78.09773909769586
rradius 26.42032976662135
rwrist 4.3403063087779055
rhand -17.634614270316526 22.686331113655633
rfingers 7.125020000000027
rthumb 8.61224104328574 -7.134346898776087
lclavicle -7.312657069006366E-16 -1.8776507025529096E-16
lhumerus -28.871466216991426 -3.101798025323248 82.18916450696088
lradius 35.368070732547935
lwrist 5.965106500744443
lhand -24.705693074778566 24.427590828202188
lfingers 7.123185234103648
lthumb 1.7654080976655688 53.76369842534818
rfemur -7.880431043002645 9.473565927947886 27.297551661663903
rtibia 18.07613089851452
rfoot -17.787041212922993 -8.940600559964388
rtoes -3.8964540471880817
lfemur 4.32616459169469 -3.0057394806464974 -26.087973422793333
ltibia 21.745459349229673
lfoot -14.999632005392439 -0.5627164983462105
ltoes -4.918623119596144
